<svg t="1676975337014" class="icon" viewBox="0 0 1024 1024" version="1.1" xmlns="http://www.w3.org/2000/svg" p-id="7872" width="32" height="32"><path d="M618.666667 640a85.333333 85.333333 0 1 0-85.333334-85.333333l-81.066666 37.12a85.333333 85.333333 0 0 0-46.933334-14.08 85.333333 85.333333 0 0 0 0 170.666666 80.213333 80.213333 0 0 0 39.253334-10.24l89.6 42.666667a85.333333 85.333333 0 1 0 34.133333-78.506667l-74.666667-34.133333 81.493334-37.546667a85.333333 85.333333 0 0 0 43.52 9.386667z m167.253333-331.946667A298.666667 298.666667 0 0 0 215.893333 388.693333a170.666667 170.666667 0 0 0-16.213333 326.826667 48.213333 48.213333 0 0 0 13.653333 2.133333 42.666667 42.666667 0 0 0 13.653334-85.333333A85.333333 85.333333 0 0 1 170.666667 554.666667a85.333333 85.333333 0 0 1 85.333333-85.333334 42.666667 42.666667 0 0 0 42.666667-42.666666 213.333333 213.333333 0 0 1 415.146666-68.693334 42.666667 42.666667 0 0 0 33.28 28.586667 128 128 0 0 1 42.666667 235.946667 42.666667 42.666667 0 1 0 42.666667 74.24A213.333333 213.333333 0 0 0 938.666667 512a213.333333 213.333333 0 0 0-152.746667-203.946667z" p-id="7873" fill="#707070"></path></svg>