<svg t="1675751921049" class="icon" viewBox="0 0 1024 1024" version="1.1" xmlns="http://www.w3.org/2000/svg" p-id="2845" width="18" height="18"><path d="M768 149.333c0-23.466-19.2-42.666-42.667-42.666H298.667c-23.467 0-42.667 19.2-42.667 42.666V192h512v-42.667zM789.333 384l21.334-85.333C810.667 275.2 791.467 256 768 256H256c-23.467 0-42.667 19.2-42.667 42.667L234.667 384h554.666z" p-id="2846"></path><path d="M870.4 341.333h-8.533l-8.534 53.334L842.667 448H181.333l-10.666-53.333-8.534-53.334H153.6c-25.6 0-44.8 21.334-42.667 46.934L166.4 878.933c2.133 21.334 21.333 38.4 42.667 38.4h605.866c21.334 0 40.534-17.066 42.667-38.4l55.467-490.666c2.133-25.6-17.067-46.934-42.667-46.934zM661.333 682.667c0 23.466-19.2 42.666-42.666 42.666H405.333c-23.466 0-42.666-19.2-42.666-42.666v-96c0-17.067 14.933-32 32-32s32 14.933 32 32v74.666h170.666v-74.666c0-17.067 14.934-32 32-32s32 14.933 32 32v96z" p-id="2847"></path></svg>